<svg xmlns="http://www.w3.org/2000/svg" data-name="Layer 1" viewBox="0 0 100 125" x="0px" y="0px"><title>03</title><g data-name="Group"><path data-name="Compound Path" d="M87.62,52.62,75,35.21A3,3,0,0,0,72.58,34H66l-2.36-7.84A3,3,0,0,0,60.76,24H53.24A3,3,0,0,0,50.3,26.4L48.78,34H6.72a3,3,0,0,0-3,3L3.19,79.3a3,3,0,0,0,3,3H14a11.81,11.81,0,0,0,22.94,0H58.26a11.81,11.81,0,0,0,22.94,0H93.81a3,3,0,0,0,3-3V62.25a3,3,0,0,0-1-2.23ZM25.45,85.34a5.82,5.82,0,1,1,5.82-5.82A5.83,5.83,0,0,1,25.45,85.34ZM43.17,58H37v6.17H31V58H24.83V52H31V45.82h6V52h6.17ZM69.73,85.34a5.82,5.82,0,1,1,5.82-5.82A5.83,5.83,0,0,1,69.73,85.34ZM60.19,51.64V40H71L79.5,51.64Z"/><rect data-name="Path" x="54" y="8.66" width="6" height="12.5"/><rect data-name="Path" x="64.04" y="16.76" width="12.91" height="6" transform="translate(6.68 55.64) rotate(-45)"/><rect data-name="Path" x="40.5" y="13.3" width="6" height="12.91" transform="translate(-1.23 36.54) rotate(-45)"/></g><text x="0" y="115" fill="#000000" font-size="5px" font-weight="bold" font-family="'Helvetica Neue', Helvetica, Arial-Unicode, Arial, Sans-serif">Created by Logan</text><text x="0" y="120" fill="#000000" font-size="5px" font-weight="bold" font-family="'Helvetica Neue', Helvetica, Arial-Unicode, Arial, Sans-serif">from the Noun Project</text></svg>